<mxfile host="drawio-plugin" modified="2022-11-23T22:43:14.329Z" agent="5.0 (Windows NT 6.2; Win64; x64) AppleWebKit/537.36 (KHTML, like Gecko) Chrome/98.0.4758.102 Safari/537.36" etag="gITtHRLD1kT6WQgH2eYW" version="20.5.3" type="embed"><diagram id="23iRSUPoRavnBvh4doch" name="Page-1"><mxGraphModel dx="854" dy="516" grid="1" gridSize="10" guides="1" tooltips="1" connect="1" arrows="1" fold="1" page="1" pageScale="1" pageWidth="827" pageHeight="1169" math="0" shadow="0"><root><mxCell id="0"/><mxCell id="1" parent="0"/><mxCell id="3" value="&amp;nbsp; &amp;nbsp; &amp;nbsp;ML Pipeline Definition" style="swimlane;whiteSpace=wrap;html=1;fillColor=#B2C9AB;strokeColor=#788AA3;fontColor=#46495D;align=left;" vertex="1" parent="1"><mxGeometry x="40" y="40" width="650" height="300" as="geometry"/></mxCell><mxCell id="10" value="data_url" style="rounded=0;whiteSpace=wrap;html=1;strokeColor=#d6b656;fillColor=#fff2cc;verticalAlign=top;spacing=0;fontSize=10;" vertex="1" parent="3"><mxGeometry x="20" y="40" width="120" height="30" as="geometry"/></mxCell><mxCell id="15" value="train_test_split&lt;br style=&quot;font-size: 10px;&quot;&gt;augmentation_type" style="rounded=0;whiteSpace=wrap;html=1;strokeColor=#d6b656;fillColor=#fff2cc;verticalAlign=top;spacing=0;fontSize=10;" vertex="1" parent="3"><mxGeometry x="180" y="40" width="120" height="30" as="geometry"/></mxCell><mxCell id="65" style="edgeStyle=orthogonalEdgeStyle;rounded=0;orthogonalLoop=1;jettySize=auto;html=1;entryX=0.5;entryY=0;entryDx=0;entryDy=0;strokeColor=#788AA3;fontSize=10;fontColor=#46495D;fillColor=#B2C9AB;" edge="1" parent="3" source="17" target="5"><mxGeometry relative="1" as="geometry"/></mxCell><mxCell id="17" value="num_epochs&lt;br&gt;learning_rate" style="rounded=0;whiteSpace=wrap;html=1;strokeColor=#d6b656;fillColor=#fff2cc;verticalAlign=top;spacing=0;fontSize=10;" vertex="1" parent="3"><mxGeometry x="340" y="40" width="120" height="30" as="geometry"/></mxCell><mxCell id="11" style="edgeStyle=orthogonalEdgeStyle;rounded=0;orthogonalLoop=1;jettySize=auto;html=1;entryX=0.5;entryY=0;entryDx=0;entryDy=0;strokeColor=#788AA3;fontColor=#46495D;fillColor=#B2C9AB;" edge="1" parent="3" source="10" target="2"><mxGeometry relative="1" as="geometry"/></mxCell><mxCell id="16" style="edgeStyle=orthogonalEdgeStyle;rounded=0;orthogonalLoop=1;jettySize=auto;html=1;entryX=0.5;entryY=0;entryDx=0;entryDy=0;strokeColor=#788AA3;fontColor=#46495D;fillColor=#B2C9AB;" edge="1" parent="3" source="15" target="4"><mxGeometry relative="1" as="geometry"/></mxCell><mxCell id="29" style="edgeStyle=orthogonalEdgeStyle;rounded=0;orthogonalLoop=1;jettySize=auto;html=1;entryX=0.5;entryY=0;entryDx=0;entryDy=0;strokeColor=#788AA3;fontSize=10;fontColor=#46495D;fillColor=#B2C9AB;" edge="1" parent="3" source="2" target="28"><mxGeometry relative="1" as="geometry"/></mxCell><mxCell id="30" value="produces" style="edgeLabel;html=1;align=center;verticalAlign=middle;resizable=0;points=[];fontSize=10;fontColor=#46495D;" vertex="1" connectable="0" parent="29"><mxGeometry x="-0.2833" relative="1" as="geometry"><mxPoint as="offset"/></mxGeometry></mxCell><mxCell id="2" value="Load Data" style="rounded=0;whiteSpace=wrap;html=1;fillColor=#B2C9AB;strokeColor=#788AA3;fontColor=#46495D;" vertex="1" parent="3"><mxGeometry x="20" y="100" width="120" height="60" as="geometry"/></mxCell><mxCell id="35" style="edgeStyle=orthogonalEdgeStyle;rounded=0;orthogonalLoop=1;jettySize=auto;html=1;entryX=0;entryY=0.5;entryDx=0;entryDy=0;strokeColor=#788AA3;fontSize=10;fontColor=#46495D;fillColor=#B2C9AB;" edge="1" parent="3" source="4" target="33"><mxGeometry relative="1" as="geometry"/></mxCell><mxCell id="36" style="edgeStyle=orthogonalEdgeStyle;rounded=0;orthogonalLoop=1;jettySize=auto;html=1;entryX=0;entryY=0.5;entryDx=0;entryDy=0;strokeColor=#788AA3;fontSize=10;fontColor=#46495D;fillColor=#B2C9AB;" edge="1" parent="3" source="4" target="34"><mxGeometry relative="1" as="geometry"/></mxCell><mxCell id="37" value="produces" style="edgeLabel;html=1;align=center;verticalAlign=middle;resizable=0;points=[];fontSize=10;fontColor=#46495D;" vertex="1" connectable="0" parent="36"><mxGeometry x="-0.6821" relative="1" as="geometry"><mxPoint as="offset"/></mxGeometry></mxCell><mxCell id="4" value="Preprocess Data" style="rounded=0;whiteSpace=wrap;html=1;fillColor=#B2C9AB;strokeColor=#788AA3;fontColor=#46495D;" vertex="1" parent="3"><mxGeometry x="180" y="100" width="120" height="60" as="geometry"/></mxCell><mxCell id="41" style="edgeStyle=orthogonalEdgeStyle;rounded=0;orthogonalLoop=1;jettySize=auto;html=1;entryX=0;entryY=0.5;entryDx=0;entryDy=0;strokeColor=#788AA3;fontSize=10;fontColor=#46495D;fillColor=#B2C9AB;" edge="1" parent="3" source="5" target="40"><mxGeometry relative="1" as="geometry"/></mxCell><mxCell id="42" value="produces" style="edgeLabel;html=1;align=center;verticalAlign=middle;resizable=0;points=[];fontSize=10;fontColor=#46495D;" vertex="1" connectable="0" parent="41"><mxGeometry x="-0.7571" relative="1" as="geometry"><mxPoint y="10" as="offset"/></mxGeometry></mxCell><mxCell id="5" value="Train an ML model" style="rounded=0;whiteSpace=wrap;html=1;fillColor=#B2C9AB;strokeColor=#788AA3;fontColor=#46495D;" vertex="1" parent="3"><mxGeometry x="340" y="100" width="120" height="60" as="geometry"/></mxCell><mxCell id="47" style="edgeStyle=orthogonalEdgeStyle;rounded=0;orthogonalLoop=1;jettySize=auto;html=1;entryX=0.5;entryY=0;entryDx=0;entryDy=0;strokeColor=#788AA3;fontSize=10;fontColor=#46495D;fillColor=#B2C9AB;exitX=0.75;exitY=1;exitDx=0;exitDy=0;" edge="1" parent="3" source="6" target="46"><mxGeometry relative="1" as="geometry"><Array as="points"><mxPoint x="590" y="170"/><mxPoint x="590" y="170"/></Array></mxGeometry></mxCell><mxCell id="48" value="produces" style="edgeLabel;html=1;align=center;verticalAlign=middle;resizable=0;points=[];fontSize=10;fontColor=#46495D;" vertex="1" connectable="0" parent="47"><mxGeometry x="-0.2167" y="1" relative="1" as="geometry"><mxPoint x="-1" y="4" as="offset"/></mxGeometry></mxCell><mxCell id="6" value="Test the model" style="rounded=0;whiteSpace=wrap;html=1;fillColor=#B2C9AB;strokeColor=#788AA3;fontColor=#46495D;" vertex="1" parent="3"><mxGeometry x="500" y="100" width="120" height="60" as="geometry"/></mxCell><mxCell id="7" style="edgeStyle=orthogonalEdgeStyle;rounded=0;orthogonalLoop=1;jettySize=auto;html=1;exitX=1;exitY=0.5;exitDx=0;exitDy=0;entryX=0;entryY=0.5;entryDx=0;entryDy=0;strokeColor=#788AA3;fontColor=#46495D;" edge="1" parent="3" source="2" target="4"><mxGeometry relative="1" as="geometry"/></mxCell><mxCell id="8" style="edgeStyle=orthogonalEdgeStyle;rounded=0;orthogonalLoop=1;jettySize=auto;html=1;exitX=1;exitY=0.5;exitDx=0;exitDy=0;entryX=0;entryY=0.5;entryDx=0;entryDy=0;strokeColor=#788AA3;fontColor=#46495D;" edge="1" parent="3" source="4" target="5"><mxGeometry relative="1" as="geometry"/></mxCell><mxCell id="9" style="edgeStyle=orthogonalEdgeStyle;rounded=0;orthogonalLoop=1;jettySize=auto;html=1;exitX=1;exitY=0.5;exitDx=0;exitDy=0;entryX=0;entryY=0.5;entryDx=0;entryDy=0;strokeColor=#788AA3;fontColor=#46495D;" edge="1" parent="3" source="5" target="6"><mxGeometry relative="1" as="geometry"/></mxCell><mxCell id="31" style="edgeStyle=orthogonalEdgeStyle;rounded=0;orthogonalLoop=1;jettySize=auto;html=1;entryX=0.25;entryY=1;entryDx=0;entryDy=0;strokeColor=#788AA3;fontSize=10;fontColor=#46495D;fillColor=#B2C9AB;" edge="1" parent="3" source="28" target="4"><mxGeometry relative="1" as="geometry"/></mxCell><mxCell id="32" value="consumes" style="edgeLabel;html=1;align=center;verticalAlign=middle;resizable=0;points=[];fontSize=10;fontColor=#46495D;" vertex="1" connectable="0" parent="31"><mxGeometry x="0.3905" relative="1" as="geometry"><mxPoint as="offset"/></mxGeometry></mxCell><mxCell id="28" value="Dataset" style="rounded=1;whiteSpace=wrap;html=1;strokeColor=#006EAF;fontSize=10;fontColor=#ffffff;fillColor=#1ba1e2;" vertex="1" parent="3"><mxGeometry x="40" y="200" width="80" height="40" as="geometry"/></mxCell><mxCell id="38" style="edgeStyle=orthogonalEdgeStyle;rounded=0;orthogonalLoop=1;jettySize=auto;html=1;entryX=0.25;entryY=1;entryDx=0;entryDy=0;strokeColor=#788AA3;fontSize=10;fontColor=#46495D;fillColor=#B2C9AB;exitX=1;exitY=0.5;exitDx=0;exitDy=0;" edge="1" parent="3" source="33" target="5"><mxGeometry relative="1" as="geometry"/></mxCell><mxCell id="39" value="consumes" style="edgeLabel;html=1;align=center;verticalAlign=middle;resizable=0;points=[];fontSize=10;fontColor=#46495D;" vertex="1" connectable="0" parent="38"><mxGeometry x="0.1704" relative="1" as="geometry"><mxPoint as="offset"/></mxGeometry></mxCell><mxCell id="33" value="Train Dataset" style="rounded=1;whiteSpace=wrap;html=1;strokeColor=#006EAF;fontSize=10;fontColor=#ffffff;fillColor=#1ba1e2;" vertex="1" parent="3"><mxGeometry x="260" y="200" width="80" height="40" as="geometry"/></mxCell><mxCell id="44" style="edgeStyle=orthogonalEdgeStyle;rounded=0;orthogonalLoop=1;jettySize=auto;html=1;entryX=0.25;entryY=1;entryDx=0;entryDy=0;strokeColor=#788AA3;fontSize=10;fontColor=#46495D;fillColor=#B2C9AB;" edge="1" parent="3" source="34" target="6"><mxGeometry relative="1" as="geometry"/></mxCell><mxCell id="34" value="Test Dataset" style="rounded=1;whiteSpace=wrap;html=1;strokeColor=#006EAF;fontSize=10;fontColor=#ffffff;fillColor=#1ba1e2;" vertex="1" parent="3"><mxGeometry x="260" y="250" width="80" height="40" as="geometry"/></mxCell><mxCell id="43" style="edgeStyle=orthogonalEdgeStyle;rounded=0;orthogonalLoop=1;jettySize=auto;html=1;entryX=0.25;entryY=1;entryDx=0;entryDy=0;strokeColor=#788AA3;fontSize=10;fontColor=#46495D;fillColor=#B2C9AB;exitX=1;exitY=0.5;exitDx=0;exitDy=0;" edge="1" parent="3" source="40" target="6"><mxGeometry relative="1" as="geometry"/></mxCell><mxCell id="45" value="consumes" style="edgeLabel;html=1;align=center;verticalAlign=middle;resizable=0;points=[];fontSize=10;fontColor=#46495D;" vertex="1" connectable="0" parent="43"><mxGeometry x="0.2339" y="1" relative="1" as="geometry"><mxPoint y="-14" as="offset"/></mxGeometry></mxCell><mxCell id="40" value="ML Model" style="rounded=1;whiteSpace=wrap;html=1;strokeColor=#006EAF;fontSize=10;fontColor=#ffffff;fillColor=#1ba1e2;" vertex="1" parent="3"><mxGeometry x="420" y="200" width="80" height="40" as="geometry"/></mxCell><mxCell id="46" value="Performance Metrics" style="rounded=1;whiteSpace=wrap;html=1;strokeColor=#006EAF;fontSize=10;fontColor=#ffffff;fillColor=#1ba1e2;" vertex="1" parent="3"><mxGeometry x="550" y="200" width="80" height="40" as="geometry"/></mxCell><mxCell id="53" value="parameters" style="rounded=0;whiteSpace=wrap;html=1;strokeColor=#d6b656;fillColor=#fff2cc;verticalAlign=middle;spacing=0;fontSize=10;align=center;" vertex="1" parent="1"><mxGeometry x="490" y="350" width="60" height="20" as="geometry"/></mxCell><mxCell id="54" value="stages" style="rounded=0;whiteSpace=wrap;html=1;fillColor=#B2C9AB;strokeColor=#788AA3;fontColor=#46495D;verticalAlign=middle;" vertex="1" parent="1"><mxGeometry x="560" y="350" width="60" height="20" as="geometry"/></mxCell><mxCell id="55" value="artifacts" style="rounded=1;whiteSpace=wrap;html=1;strokeColor=#006EAF;fontSize=10;fontColor=#ffffff;fillColor=#1ba1e2;" vertex="1" parent="1"><mxGeometry x="630" y="350" width="60" height="20" as="geometry"/></mxCell><mxCell id="56" value="Stage Execution" style="swimlane;whiteSpace=wrap;html=1;strokeColor=#788AA3;fontSize=10;fontColor=#46495D;fillColor=#B2C9AB;" vertex="1" parent="1"><mxGeometry x="89" y="420" width="321" height="230" as="geometry"/></mxCell><mxCell id="66" style="edgeStyle=orthogonalEdgeStyle;rounded=0;orthogonalLoop=1;jettySize=auto;html=1;entryX=0.5;entryY=0;entryDx=0;entryDy=0;strokeColor=#788AA3;fontSize=10;fontColor=#46495D;fillColor=#B2C9AB;" edge="1" parent="56" source="57" target="60"><mxGeometry relative="1" as="geometry"/></mxCell><mxCell id="57" value="num_epochs&lt;br&gt;learning_rate" style="rounded=0;whiteSpace=wrap;html=1;strokeColor=#d6b656;fillColor=#fff2cc;verticalAlign=top;spacing=0;fontSize=10;" vertex="1" parent="56"><mxGeometry x="101" y="40" width="120" height="30" as="geometry"/></mxCell><mxCell id="60" value="Train an ML model" style="rounded=0;whiteSpace=wrap;html=1;fillColor=#B2C9AB;strokeColor=#788AA3;fontColor=#46495D;" vertex="1" parent="56"><mxGeometry x="102" y="90" width="120" height="60" as="geometry"/></mxCell><mxCell id="61" style="edgeStyle=orthogonalEdgeStyle;rounded=0;orthogonalLoop=1;jettySize=auto;html=1;entryX=0.25;entryY=1;entryDx=0;entryDy=0;strokeColor=#788AA3;fontSize=10;fontColor=#46495D;fillColor=#B2C9AB;exitX=1;exitY=0.5;exitDx=0;exitDy=0;" edge="1" parent="56" source="63" target="60"><mxGeometry relative="1" as="geometry"/></mxCell><mxCell id="62" value="consumes" style="edgeLabel;html=1;align=center;verticalAlign=middle;resizable=0;points=[];fontSize=10;fontColor=#46495D;" vertex="1" connectable="0" parent="61"><mxGeometry x="0.1704" relative="1" as="geometry"><mxPoint y="-10" as="offset"/></mxGeometry></mxCell><mxCell id="63" value="Train Dataset" style="rounded=1;whiteSpace=wrap;html=1;strokeColor=#006EAF;fontSize=10;fontColor=#ffffff;fillColor=#1ba1e2;" vertex="1" parent="56"><mxGeometry x="21" y="170" width="80" height="40" as="geometry"/></mxCell><mxCell id="64" value="ML Model" style="rounded=1;whiteSpace=wrap;html=1;strokeColor=#006EAF;fontSize=10;fontColor=#ffffff;fillColor=#1ba1e2;" vertex="1" parent="56"><mxGeometry x="221" y="170" width="80" height="40" as="geometry"/></mxCell><mxCell id="58" style="edgeStyle=orthogonalEdgeStyle;rounded=0;orthogonalLoop=1;jettySize=auto;html=1;entryX=0;entryY=0.5;entryDx=0;entryDy=0;strokeColor=#788AA3;fontSize=10;fontColor=#46495D;fillColor=#B2C9AB;exitX=0.75;exitY=1;exitDx=0;exitDy=0;" edge="1" parent="56" source="60" target="64"><mxGeometry relative="1" as="geometry"/></mxCell><mxCell id="59" value="produces" style="edgeLabel;html=1;align=center;verticalAlign=middle;resizable=0;points=[];fontSize=10;fontColor=#46495D;" vertex="1" connectable="0" parent="58"><mxGeometry x="-0.7571" relative="1" as="geometry"><mxPoint y="10" as="offset"/></mxGeometry></mxCell></root></mxGraphModel></diagram></mxfile>